<svg xmlns="http://www.w3.org/2000/svg" viewBox="0 0 397.13 178.62"><defs><style>.cls-1{fill:#231f20;}</style></defs><title>Asset 1</title><g id="Layer_2" data-name="Layer 2"><g id="Warstwa_1" data-name="Warstwa 1"><path class="cls-1" d="M16.73,109.26a11.54,11.54,0,0,0-3.28-1.69,12.64,12.64,0,0,0-4-.62H0v63.9H3.37V139.68H9.48a12.32,12.32,0,0,0,4-.63,11,11,0,0,0,3.28-1.69A8.69,8.69,0,0,0,19,134.85a6.29,6.29,0,0,0,.86-3.2V115a6.3,6.3,0,0,0-.86-3.21A8.69,8.69,0,0,0,16.73,109.26Zm-13.36.51H9.48a8.08,8.08,0,0,1,5,1.58,4.42,4.42,0,0,1,2,3.63v16.67a4.39,4.39,0,0,1-2,3.66,8.3,8.3,0,0,1-5,1.54H3.37Z"/><polygon class="cls-1" points="44.95 136.85 30.91 136.85 30.91 106.95 27.55 106.95 27.55 170.85 30.91 170.85 30.91 139.59 44.95 139.59 44.95 170.85 48.13 170.85 48.13 106.95 44.95 106.95 44.95 136.85"/><path class="cls-1" d="M73.42,109.27a10.71,10.71,0,0,0-3.24-1.7,12.71,12.71,0,0,0-4-.62,11.74,11.74,0,0,0-7.3,2.27A7,7,0,0,0,55.82,115v47.84a7,7,0,0,0,3.08,5.81,12,12,0,0,0,7.3,2.22,11.75,11.75,0,0,0,7.26-2.23,7,7,0,0,0,3-5.8V115a6.3,6.3,0,0,0-.86-3.21A9,9,0,0,0,73.42,109.27Zm-2.2,57.17a8.85,8.85,0,0,1-10.08,0,4.43,4.43,0,0,1-2-3.63V115a4.42,4.42,0,0,1,2-3.63,8.83,8.83,0,0,1,10.08,0,4.44,4.44,0,0,1,2,3.63v47.84A4.42,4.42,0,0,1,71.22,166.44Z"/><polygon class="cls-1" points="80.65 109.77 88.89 109.77 88.89 170.85 92.26 170.85 92.26 109.77 100.42 109.77 100.42 106.95 80.65 106.95 80.65 109.77"/><path class="cls-1" d="M123.17,109.27a10.82,10.82,0,0,0-3.24-1.7,12.75,12.75,0,0,0-4-.62,11.74,11.74,0,0,0-7.3,2.27,7,7,0,0,0-3.08,5.76v47.84a7,7,0,0,0,3.08,5.81,12,12,0,0,0,7.3,2.22,11.7,11.7,0,0,0,7.25-2.23,7,7,0,0,0,3-5.8V115a6.3,6.3,0,0,0-.86-3.21A9,9,0,0,0,123.17,109.27ZM121,166.44a8.85,8.85,0,0,1-10.08,0,4.44,4.44,0,0,1-2-3.63V115a4.43,4.43,0,0,1,2-3.63,8.83,8.83,0,0,1,10.08,0,4.42,4.42,0,0,1,2,3.63v47.84A4.41,4.41,0,0,1,121,166.44Z"/><path class="cls-1" d="M154.6,120.46V115a6.3,6.3,0,0,0-.86-3.21,9,9,0,0,0-2.21-2.5,10.71,10.71,0,0,0-3.24-1.7,12.71,12.71,0,0,0-4-.62,11.74,11.74,0,0,0-7.3,2.27,7,7,0,0,0-3.08,5.76V130.2a6.3,6.3,0,0,0,1.07,3.6,9.31,9.31,0,0,0,2.72,2.61,20.43,20.43,0,0,0,2.43,1.22c.74.31,1.79.68,3.14,1.11l.89.19v0a1,1,0,0,0,.45.15c.8.28,1.55.56,2.25.82a9.38,9.38,0,0,1,1.67.79,8.31,8.31,0,0,1,2,1.88,3.32,3.32,0,0,1,.73,2.08v18.21a4.42,4.42,0,0,1-2,3.62,8.85,8.85,0,0,1-10.08,0,4.43,4.43,0,0,1-1.95-3.63v-5.49h-3.37v5.49a7,7,0,0,0,3.08,5.81,12,12,0,0,0,7.3,2.22,11.75,11.75,0,0,0,7.26-2.23,7,7,0,0,0,3-5.8V144.61a6.35,6.35,0,0,0-1.11-3.66,8.79,8.79,0,0,0-3-2.65,21,21,0,0,0-2.49-1.22c-.77-.31-1.78-.65-3-1l-.88-.17h0a2.06,2.06,0,0,1-.46-.15l-.06,0-.06,0c-.84-.24-1.61-.46-2.3-.68a5.18,5.18,0,0,1-1.6-.78,4.47,4.47,0,0,1-2.3-4V115a4.42,4.42,0,0,1,1.95-3.63,8.83,8.83,0,0,1,10.08,0,4.44,4.44,0,0,1,2,3.63v5.48Z"/><path class="cls-1" d="M208.06,99.34c.35-.71.7-1.35,1.06-1.93s.71-1.17,1.06-1.79q5-8.34,10.14-16.56t10.8-16.17q4.11-5.58,8.55-10.67t9.21-9.88q2.25-2.25,4.64-4.31a36.19,36.19,0,0,1,5-3.64,19.21,19.21,0,0,1,2.25-1.2,12.52,12.52,0,0,1,2.52-.79q5.84-1.2,6.63,4.77a19.57,19.57,0,0,1,.26,4.51,26.85,26.85,0,0,1-.66,4.5c-.71,3.1-1.5,6.15-2.39,9.15s-1.85,6-2.91,9q-2.38,7.43-4.84,14.72t-5,14.71c-.18.53-.33,1.06-.46,1.59s-.29,1.15-.47,1.85c.44.09.84.16,1.19.2a7.69,7.69,0,0,0,1.07.07c1.59-.18,3.2-.31,4.83-.4l5-.26a7,7,0,0,1,1.66-.07c.57,0,1.13.11,1.66.2s.93.53.93,1.06a1.13,1.13,0,0,1-.67,1.19,5.09,5.09,0,0,1-1.06.4l-1.06.27c-1.32.17-2.65.28-4,.33a37.94,37.94,0,0,0-4,.33c-1.15.18-2.28.31-3.38.4l-3.38.26a11.56,11.56,0,0,0-.8,1.86q-2.39,8.34-4.37,16.63c-1.33,5.52-4.23,21.95-5.11,27.7a12.83,12.83,0,0,0-.26,2.58c0,.84,0,1.74-.14,2.72v2.18a4,4,0,0,0,.67,2.19,1.34,1.34,0,0,1,0,1.39,3,3,0,0,1-1.06,1.13,3.2,3.2,0,0,1-1.46.2,1.87,1.87,0,0,1-1.33-.73A6.05,6.05,0,0,1,237,154.8c.09-1.77.16-3.58.2-5.44s.16-3.66.33-5.43c.71-4.77,3.39-20.23,4.45-24.78s2.21-9.12,3.45-13.72c.17-.61.33-1.23.46-1.85s.29-1.28.46-2a6.08,6.08,0,0,1-1.06-.07,6.17,6.17,0,0,0-.92-.06q-7.56.26-15.11.66l-15.11.79a6.09,6.09,0,0,0-.93.07,2.18,2.18,0,0,1-.93-.07,4.16,4.16,0,0,0-4.37,2.92c-.18.44-.38.88-.6,1.33s-.46.88-.73,1.32a11.25,11.25,0,0,0-1.52,3.25,25.89,25.89,0,0,0-.73,3.51,144,144,0,0,1-4.11,18.23c-1.77,6-7.62,23.19-10.18,28.93-.71,1.33-1.55,2.74-2.52,4.25a6.22,6.22,0,0,1-3.18,2.51,2.93,2.93,0,0,1-2.92-.19,2.87,2.87,0,0,1-1.06-2.72c.09-1,.2-1.92.33-2.85a17.56,17.56,0,0,1,.6-2.72c1.5-6,7.22-23,9.78-28.08l4.51-9.27q2.25-4.65,4.77-9.28a10.57,10.57,0,0,0,.8-6.63,6.08,6.08,0,0,0-1.46-3c-.62-.58-22.07-.27-23.49-.53-.62-.09-1.24-.15-1.85-.2a8.65,8.65,0,0,1-1.86-.33,4.42,4.42,0,0,1-2.25-1.33,1.47,1.47,0,0,1-.53-1.46,1.73,1.73,0,0,1,.79-1.32,5.73,5.73,0,0,1,4.11-.8,8.85,8.85,0,0,1,1.46.14,7.58,7.58,0,0,1,1.46.39c1.5.89,23.53.58,25.21.53S206.2,99.42,208.06,99.34Zm-23.31,64.39a3.82,3.82,0,0,0,1.66-1.59l1-2c1.85-3.53,7.08-18.53,8.32-22.24a114.11,114.11,0,0,0,3.18-11.54,5.71,5.71,0,0,1,.4-1.25,2.21,2.21,0,0,0,0-1.53,41.82,41.82,0,0,0-3.45,6.23q-1.85,4-3.44,8.22c-1.06,2.83-5.66,16.94-6.41,19.59A31.91,31.91,0,0,0,184.75,163.73Zm21.06-59.62a3.84,3.84,0,0,0-.93-.8.68.68,0,0,0-.33.27.78.78,0,0,1-.33.26c.17.45.35.66.52.66a1.19,1.19,0,0,0,.54-.13Zm41.88-6.63,1.19-3.18q1.45-4.24,2.85-8.55t2.85-8.55q2-6.09,4.11-12t4-12c.7-1.94,1.3-3.87,1.79-5.77s1-3.86,1.39-5.89a12.64,12.64,0,0,0,.13-4.11,1.82,1.82,0,0,0-.73-1.59,1.8,1.8,0,0,0-1.79-.14,12.91,12.91,0,0,0-2,.67,7,7,0,0,0-1.72,1.06c-1.32.88-2.61,1.79-3.84,2.71s-2.48,1.93-3.71,3q-3.31,3-6.23,6.29t-5.84,6.7a171.45,171.45,0,0,0-14.38,20Q219.33,86.61,213,97.35a3.4,3.4,0,0,0-.53,1.59,7.39,7.39,0,0,1,1.06.06,5.18,5.18,0,0,0,.93.07q7.16-.27,14.12-.46t14.11-.47c.89-.08,1.73-.13,2.52-.13A6.83,6.83,0,0,0,247.69,97.48Z"/><path class="cls-1" d="M277.51,98.94a7,7,0,0,0-2.32-.14l-2.18.27c-.62.09-1.2.16-1.73.2a4.83,4.83,0,0,1-1.72-.2A3,3,0,0,1,267,95.49a4.44,4.44,0,0,1,.86-2.38,7.08,7.08,0,0,1,1.79-1.6,1.4,1.4,0,0,1,1.66-.19,2.48,2.48,0,0,1,1,1.65V94.7c1-.09,1.88-.2,2.72-.34s1.7-.28,2.59-.46a6.83,6.83,0,0,1,2.65-.26,2.94,2.94,0,0,1,2.38,1.59,3.11,3.11,0,0,1-.13,2.91,7.14,7.14,0,0,1-.73,1.53c-.31.48-.64,1-1,1.39-.71,1.06-1.46,2.14-2.26,3.25s-1.54,2.18-2.25,3.24c-.71,1.24-1.37,2.52-2,3.85a16.62,16.62,0,0,0-1.32,4.24,4.23,4.23,0,0,0,0,2.12,1.08,1.08,0,0,0,1.45.93,13.29,13.29,0,0,0,2-1.06c.88-.71,1.75-1.37,2.59-2s1.65-1.28,2.45-2a100.88,100.88,0,0,0,14.18-15.77c.35-.44.73-.88,1.13-1.33s.81-.88,1.26-1.32a1.77,1.77,0,0,1,.79-.14l.27.53a.62.62,0,0,1,0,.53,1.32,1.32,0,0,1-.66,1.2q-4.11,5.57-8.62,10.73a67.66,67.66,0,0,1-10.07,9.41,26.71,26.71,0,0,1-4.11,2.79,3.28,3.28,0,0,1-3.38,0,3.83,3.83,0,0,1-1.53-3.18,13.43,13.43,0,0,1,1.2-6.23l4.37-8.75a4.63,4.63,0,0,1,.8-1.46A2.2,2.2,0,0,0,277.51,98.94Z"/><path class="cls-1" d="M280.92,178.62c-1.95-.44-3-1.5-3.05-3.18a12.81,12.81,0,0,1,0-3.71c.44-4.42,1-19.64,5.07-34.88.86-3.19,1.75-6.39,2.59-9.61s1.75-6.48,2.72-9.75q.66-2.51,1.45-5t1.73-5q2.77-7.68,5.76-15.31t6.3-15.17q2.52-6.1,5-12.07t5.37-11.93a3,3,0,0,0,.4-1,7.82,7.82,0,0,1,.39-1.26,13.24,13.24,0,0,0-3.24.13l-3,.53q-6.36,1.2-12.59,2.39c-4.15.79-8.35,1.55-12.59,2.25l-3.78.53-3.78.53a9.5,9.5,0,0,1-3.31-.53,2.38,2.38,0,0,1-1.59-1.72,2.63,2.63,0,0,1,.53-2.25A8.94,8.94,0,0,1,277,49.1a2,2,0,0,1,2.52,1.33.86.86,0,0,1,.26.66A2.16,2.16,0,0,0,280,52q9.29-1.07,18.29-2.52t18.29-2.39c.27-.53.53-1.08.8-1.65a11.68,11.68,0,0,1,.92-1.66c1.24-2.3,12.17-25.18,13.41-27.43s2.52-4.49,3.85-6.7A31.64,31.64,0,0,1,338,6.1q1.32-1.72,2.79-3.45a10.83,10.83,0,0,1,1.52-1.26c.57-.4,1.17-.77,1.79-1.13a1.66,1.66,0,0,1,1.79,0,1.77,1.77,0,0,1,.86,1.59v1.2a2.32,2.32,0,0,1-.27,1.06q-.66,2.11-1.32,4.17c-.44,1.37-.88,2.72-1.33,4.05l-2.05,5.16c-.66,1.68-11,24-11.75,25.65a3,3,0,0,0-.33,1.06,5.54,5.54,0,0,1-.33,1.19,9.19,9.19,0,0,0,1.19.26q4.64-.52,9.08-.92l8.95-.8Q358.9,42.86,369,42.14a167.12,167.12,0,0,1,20.41-.2,46.54,46.54,0,0,1,4.77.8,3.56,3.56,0,0,1,1.19.46c.36.22.71.47,1.06.73a2,2,0,0,1,.67,1.92,2.36,2.36,0,0,1-1.33,1.53c-.26.09-.75.22-1.46.39q-1.45.4-1.92-.06a4.64,4.64,0,0,1-.73-2.32c-.44-.09-.84-.18-1.19-.27a5.35,5.35,0,0,0-1.19-.13A79.07,79.07,0,0,0,376,44.53q-6.5.33-13.12.86-15.11,1.19-29.69,2.78l-2.72.27c-.84.09-1.74.22-2.71.4a17.75,17.75,0,0,0-1.33,2.65c-.88,1.76-1.72,3.49-2.52,5.17s-1.59,3.35-2.38,5A137.89,137.89,0,0,1,311,80.51c-1.23,1.86-2.45,3.72-3.64,5.57s-2.41,3.71-3.65,5.57a27.26,27.26,0,0,0-1.85,3.58c-1,2.3-1.95,4.61-2.92,7s-1.94,4.66-2.91,7A117.7,117.7,0,0,0,292,120.21q-1.72,5.51-3.58,11.07c-1.24,3.71-2.47,7.33-3.38,10.93a125.06,125.06,0,0,0-4.15,26.47q-.33,3.18-.46,6.36a4.87,4.87,0,0,0,.06,1.79C280.59,177.41,280.74,178,280.92,178.62ZM321,49.63q-3.06,6.76-5.9,13.12a91.49,91.49,0,0,0-4.71,13.12,10.8,10.8,0,0,0,2.26-2.78q2.12-3.7,4.1-7.29t3.85-7.29c.7-1.32,1.34-2.67,1.92-4s1.17-2.76,1.79-4.18l-.27-.92c-.44.08-.9.15-1.39.19A16.35,16.35,0,0,1,321,49.63ZM343.67,6.76c-.44-.35-.82-.44-1.13-.27a1.81,1.81,0,0,0-.72.8q-2.65,4.25-4.91,8.55C335.41,18.71,324.3,42.3,323,45.39a.48.48,0,0,0,.07.26,1,1,0,0,1,.07.4,1.62,1.62,0,0,0,1.06.13,4.82,4.82,0,0,0,1.19-.13c.35-.09.75-.17,1.19-.26q.66-1.45,1.2-2.79c.35-.88,10.4-22.41,10.75-23.38.88-2.21,1.75-4.38,2.59-6.5l2.58-6.49c-.09,0-.13,0-.13-.07s-.05-.07-.13-.07Z"/><path class="cls-1" d="M17.6,32.27a10.92,10.92,0,0,0-3.24-1.69,12.38,12.38,0,0,0-4-.63,11.82,11.82,0,0,0-7.3,2.27A7,7,0,0,0,0,38V53.2a6.31,6.31,0,0,0,1.07,3.61,9.31,9.31,0,0,0,2.72,2.61,21.88,21.88,0,0,0,2.43,1.21c.74.31,1.8.69,3.14,1.11l.89.2v0a1.19,1.19,0,0,0,.45.14l2.25.82a11,11,0,0,1,1.67.79,8.38,8.38,0,0,1,2.06,1.89,3.34,3.34,0,0,1,.72,2.07V85.83a4.41,4.41,0,0,1-2,3.62,8.08,8.08,0,0,1-5,1.58,8,8,0,0,1-5.06-1.58,4.44,4.44,0,0,1-1.95-3.62V80.34H0v5.49a7,7,0,0,0,3.09,5.8,11.87,11.87,0,0,0,7.29,2.22,11.8,11.8,0,0,0,7.26-2.22,7,7,0,0,0,3-5.8V67.61A6.35,6.35,0,0,0,19.56,64a8.79,8.79,0,0,0-3-2.65A18.83,18.83,0,0,0,14,60.09c-.78-.31-1.79-.65-3-1l-.88-.17h0a1.45,1.45,0,0,1-.46-.15l0,0H9.57L7.28,58a5.15,5.15,0,0,1-1.61-.79,4.46,4.46,0,0,1-2.3-4V38a4.43,4.43,0,0,1,2-3.62,8,8,0,0,1,5.06-1.58,8.08,8.08,0,0,1,5,1.58,4.41,4.41,0,0,1,2,3.62v5.49h3.28V38a6.3,6.3,0,0,0-.87-3.2A9.07,9.07,0,0,0,17.6,32.27Z"/><path class="cls-1" d="M51.84,30.52C50.1,39.87,48.27,49.44,46.41,59c-1.63,8.27-3.23,16.64-4.77,24.95L31.43,30H28.36V94h3.37V48.29l8.53,45.56H43l.1-.55q2.55-13.14,5-26.06,1.79-9.43,3.62-19V94h3.19V30H52Z"/><path class="cls-1" d="M68.87,30l-9,63.9h3.46l.1-.58c.66-4.17,1.27-8.48,1.81-12.8Q66,74.26,66.81,68.3H74l3.53,25.55h3.3L72,30Zm-1.6,35.53q1-6.93,1.92-13.45l1.31-9.48c.14,1,.28,1.91.41,2.82q.5,3.5,1,6.79c.31,2.21.62,4.46,1,6.76.29,2.06.61,4.25.93,6.56Z"/><path class="cls-1" d="M102.54,32.27a11.11,11.11,0,0,0-3.27-1.69,12.47,12.47,0,0,0-4-.63H85.81v63.9h3.37V62.68h6.11a8.08,8.08,0,0,1,5,1.58,4.42,4.42,0,0,1,2,3.62v26h3.37v-26a6.27,6.27,0,0,0-1.77-4.36A11.45,11.45,0,0,0,101,61.27,11.68,11.68,0,0,0,103.9,59a6.29,6.29,0,0,0,1.77-4.37V38a6.29,6.29,0,0,0-.86-3.2A8.69,8.69,0,0,0,102.54,32.27Zm-13.36.51h6.11a8.08,8.08,0,0,1,5,1.58,4.42,4.42,0,0,1,2,3.62V54.65a4.39,4.39,0,0,1-2,3.67,8.28,8.28,0,0,1-5,1.54H89.18Z"/><polygon class="cls-1" points="109.83 32.78 118.07 32.78 118.07 93.85 121.44 93.85 121.44 32.78 129.59 32.78 129.59 29.95 109.83 29.95 109.83 32.78"/></g></g></svg>